<?xml version="1.0" encoding="UTF-8" standalone="no"?>
<svg
   xmlns:dc="http://purl.org/dc/elements/1.1/"
   xmlns:cc="http://creativecommons.org/ns#"
   xmlns:rdf="http://www.w3.org/1999/02/22-rdf-syntax-ns#"
   xmlns:svg="http://www.w3.org/2000/svg"
   xmlns="http://www.w3.org/2000/svg"
   xmlns:sodipodi="http://sodipodi.sourceforge.net/DTD/sodipodi-0.dtd"
   xmlns:inkscape="http://www.inkscape.org/namespaces/inkscape"
   width="61.539448mm"
   height="67.214447mm"
   viewBox="0 0 61.539448 67.214447"
   version="1.1"
   id="svg351"
   inkscape:version="1.0.2 (394de47547, 2021-03-26)"
   sodipodi:docname="rock.svg">
  <defs
     id="defs345" />
  <sodipodi:namedview
     id="base"
     pagecolor="#ffffff"
     bordercolor="#666666"
     borderopacity="1.0"
     inkscape:pageopacity="0.0"
     inkscape:pageshadow="2"
     inkscape:zoom="0.98994949"
     inkscape:cx="152.91768"
     inkscape:cy="289.80634"
     inkscape:document-units="mm"
     inkscape:current-layer="layer1"
     inkscape:document-rotation="0"
     showgrid="false"
     inkscape:window-width="1448"
     inkscape:window-height="1013"
     inkscape:window-x="226"
     inkscape:window-y="0"
     inkscape:window-maximized="0" />
  <metadata
     id="metadata348">
    <rdf:RDF>
      <cc:Work
         rdf:about="">
        <dc:format>image/svg+xml</dc:format>
        <dc:type
           rdf:resource="http://purl.org/dc/dcmitype/StillImage" />
        <dc:title></dc:title>
      </cc:Work>
    </rdf:RDF>
  </metadata>
  <g
     inkscape:label="Layer 1"
     inkscape:groupmode="layer"
     id="layer1"
     transform="translate(-65.373864,-71.48874)">
    <g
       id="g138"
       transform="matrix(0.26458333,0,0,0.26458333,65.354492,59.224975)">
      <g
         id="g78">
        <path
           fill="#999999"
           stroke="#999999"
           stroke-width="20.3806"
           stroke-linecap="round"
           stroke-linejoin="round"
           stroke-miterlimit="10"
           d="m 132.3,60.8 c 0,0 31.1,-10.6 33.7,30.5 2,32.2 14.6,65.2 -6.1,68.7 -20.8,3.5 -62.5,-76.5 -27.6,-99.2 z"
           id="path64" />
        <path
           fill="#999999"
           stroke="#999999"
           stroke-width="20.3806"
           stroke-linecap="round"
           stroke-linejoin="round"
           stroke-miterlimit="10"
           d="M 181.8,168.7"
           id="path66" />
        <path
           fill="#999999"
           stroke="#999999"
           stroke-width="20.3806"
           stroke-linecap="round"
           stroke-linejoin="round"
           stroke-miterlimit="10"
           d="m 187.4,165.5 c -31,4.4 -61,5.3 -56.6,-24.8 4.4,-30.1 68.1,-33.6 87.5,1.8 19.5,35.4 -34.5,68.1 -34.5,68.1 0,0 -0.9,17.7 -13.3,29.2 -12.4,11.5 -7.1,38.9 -7.1,38.9 l -83.1,11.5 c 0,0 8.8,-28.3 6.2,-35.4 -2.6,-7.1 -69.9,-52.2 -46.9,-82.2 23,-30.1 30.9,-39.8 62.8,-52.2"
           id="path68" />
        <path
           fill="#999999"
           stroke="#999999"
           stroke-width="20.3806"
           stroke-linecap="round"
           stroke-linejoin="round"
           stroke-miterlimit="10"
           d="m 83.6,75 c 0,0 30.1,-13.3 36.3,27.4 4.9,31.9 20.3,63.7 0,69 -20.4,5.3 -69,-70.7 -36.3,-96.4 z"
           id="path70" />
        <path
           fill="#999999"
           stroke="#999999"
           stroke-width="20.3806"
           stroke-linecap="round"
           stroke-linejoin="round"
           stroke-miterlimit="10"
           d="m 38.9,100.4 c 0,0 20.9,-20.4 39,18.2 13,27.6 31.4,54.9 13.6,63.8 -17.8,9 -77.8,-51.8 -52.6,-82 z"
           id="path72" />
        <path
           fill="#999999"
           stroke="#999999"
           stroke-width="20.3806"
           stroke-linecap="round"
           stroke-linejoin="round"
           stroke-miterlimit="10"
           d="m 18.2,138.9 c 0,0 21.9,-8 30.8,14.4 8.8,22.5 24.8,43.4 10.7,50.4 -14,7 -61.4,-41 -41.5,-64.8 z"
           id="path74" />
        <path
           fill="#999999"
           stroke="#999999"
           stroke-width="20.3806"
           stroke-linecap="round"
           stroke-linejoin="round"
           stroke-miterlimit="10"
           d="m 145,189.4 c 0,0 4.4,-18.6 22.1,-21.2"
           id="path76" />
      </g>
      <g
         id="g94">
        <path
           fill="#ffffff"
           stroke="#ffffff"
           stroke-width="20.3806"
           stroke-linecap="round"
           stroke-linejoin="round"
           stroke-miterlimit="10"
           d="m 129.1,57.8 c 0,0 31.1,-10.6 33.7,30.5 2,32.2 14.6,65.2 -6.1,68.7 C 136,160.5 94.2,80.5 129.1,57.8 Z"
           id="path80" />
        <path
           fill="#ffffff"
           stroke="#ffffff"
           stroke-width="20.3806"
           stroke-linecap="round"
           stroke-linejoin="round"
           stroke-miterlimit="10"
           d="M 178.6,165.7"
           id="path82" />
        <path
           fill="#ffffff"
           stroke="#ffffff"
           stroke-width="20.3806"
           stroke-linecap="round"
           stroke-linejoin="round"
           stroke-miterlimit="10"
           d="m 184.2,162.5 c -31,4.4 -61,5.3 -56.6,-24.8 4.4,-30.1 68.1,-33.6 87.5,1.8 19.5,35.4 -34.5,68.1 -34.5,68.1 0,0 -0.9,17.7 -13.3,29.2 -12.4,11.5 -7.1,38.9 -7.1,38.9 l -83.1,11.5 c 0,0 8.8,-28.3 6.2,-35.4 -2.7,-7.1 -69.9,-52.2 -46.9,-82.2 23,-30.1 30.9,-39.8 62.8,-52.2"
           id="path84" />
        <path
           fill="#ffffff"
           stroke="#ffffff"
           stroke-width="20.3806"
           stroke-linecap="round"
           stroke-linejoin="round"
           stroke-miterlimit="10"
           d="m 80.4,72 c 0,0 30.1,-13.3 36.3,27.4 4.9,31.9 20.3,63.7 0,69 C 96.4,173.7 47.7,97.7 80.4,72 Z"
           id="path86" />
        <path
           fill="#ffffff"
           stroke="#ffffff"
           stroke-width="20.3806"
           stroke-linecap="round"
           stroke-linejoin="round"
           stroke-miterlimit="10"
           d="m 35.8,97.4 c 0,0 20.9,-20.4 39,18.2 13,27.7 31.4,54.9 13.6,63.8 -17.9,9 -77.9,-51.8 -52.6,-82 z"
           id="path88" />
        <path
           fill="#ffffff"
           stroke="#ffffff"
           stroke-width="20.3806"
           stroke-linecap="round"
           stroke-linejoin="round"
           stroke-miterlimit="10"
           d="m 15,135.9 c 0,0 21.9,-8.1 30.8,14.4 8.8,22.5 24.8,43.4 10.7,50.4 -14,7.1 -61.4,-41 -41.5,-64.8 z"
           id="path90" />
        <path
           fill="#ffffff"
           stroke="#ffffff"
           stroke-width="20.3806"
           stroke-linecap="round"
           stroke-linejoin="round"
           stroke-miterlimit="10"
           d="m 141.8,186.4 c 0,0 4.4,-18.6 22.1,-21.2"
           id="path92" />
      </g>
      <path
         fill="#fdd9bd"
         stroke="#4d4d4d"
         stroke-width="7.446"
         stroke-linecap="round"
         stroke-linejoin="round"
         stroke-miterlimit="10"
         d="m 129.1,57.8 c 0,0 31.1,-10.6 33.7,30.5 2,32.2 14.6,65.2 -6.1,68.7 C 136,160.5 94.2,80.5 129.1,57.8 Z"
         id="path96" />
      <path
         fill="#fdd9bd"
         stroke="#4d4d4d"
         stroke-width="7.446"
         stroke-linecap="round"
         stroke-linejoin="round"
         stroke-miterlimit="10"
         d="M 178.6,165.7"
         id="path98" />
      <path
         fill="#fdd9bd"
         stroke="#4d4d4d"
         stroke-width="7.446"
         stroke-linecap="round"
         stroke-linejoin="round"
         stroke-miterlimit="10"
         d="m 184.2,162.5 c -31,4.4 -61,5.3 -56.6,-24.8 4.4,-30.1 68.1,-33.6 87.5,1.8 19.5,35.4 -34.5,68.1 -34.5,68.1 0,0 -0.9,17.7 -13.3,29.2 -12.4,11.5 -7.1,38.9 -7.1,38.9 l -83.1,11.5 c 0,0 8.8,-28.3 6.2,-35.4 -2.7,-7.1 -69.9,-52.2 -46.9,-82.2 23,-30.1 30.9,-39.8 62.8,-52.2"
         id="path100" />
      <path
         fill="#fdd9bd"
         stroke="#4d4d4d"
         stroke-width="7.446"
         stroke-linecap="round"
         stroke-linejoin="round"
         stroke-miterlimit="10"
         d="m 80.4,72 c 0,0 30.1,-13.3 36.3,27.4 4.9,31.9 20.3,63.7 0,69 C 96.4,173.7 47.7,97.7 80.4,72 Z"
         id="path102" />
      <path
         fill="#fdd9bd"
         stroke="#4d4d4d"
         stroke-width="7.446"
         stroke-linecap="round"
         stroke-linejoin="round"
         stroke-miterlimit="10"
         d="m 35.8,97.4 c 0,0 20.9,-20.4 39,18.2 13,27.7 31.4,54.9 13.6,63.8 -17.9,9 -77.9,-51.8 -52.6,-82 z"
         id="path104" />
      <path
         fill="#fdd9bd"
         stroke="#4d4d4d"
         stroke-width="7.446"
         stroke-linecap="round"
         stroke-linejoin="round"
         stroke-miterlimit="10"
         d="m 15,135.9 c 0,0 21.9,-8.1 30.8,14.4 8.8,22.5 24.8,43.4 10.7,50.4 -14,7.1 -61.4,-41 -41.5,-64.8 z"
         id="path106" />
      <path
         fill="#fdd9bd"
         stroke="#4d4d4d"
         stroke-width="7.446"
         stroke-linecap="round"
         stroke-linejoin="round"
         stroke-miterlimit="10"
         d="m 141.8,186.4 c 0,0 4.4,-18.6 22.1,-21.2"
         id="path108" />
    </g>
  </g>
</svg>
