<?xml version="1.0" encoding="UTF-8" standalone="no"?>
<svg
   xmlns:dc="http://purl.org/dc/elements/1.1/"
   xmlns:cc="http://creativecommons.org/ns#"
   xmlns:rdf="http://www.w3.org/1999/02/22-rdf-syntax-ns#"
   xmlns:svg="http://www.w3.org/2000/svg"
   xmlns="http://www.w3.org/2000/svg"
   xmlns:sodipodi="http://sodipodi.sourceforge.net/DTD/sodipodi-0.dtd"
   xmlns:inkscape="http://www.inkscape.org/namespaces/inkscape"
   width="58.253708mm"
   height="89.024307mm"
   viewBox="0 0 58.253708 89.024307"
   version="1.1"
   id="svg548"
   inkscape:version="1.0.2 (394de47547, 2021-03-26)"
   sodipodi:docname="sissors.svg">
  <defs
     id="defs542" />
  <sodipodi:namedview
     id="base"
     pagecolor="#ffffff"
     bordercolor="#666666"
     borderopacity="1.0"
     inkscape:pageopacity="0.0"
     inkscape:pageshadow="2"
     inkscape:zoom="0.35"
     inkscape:cx="85.089368"
     inkscape:cy="259.4298"
     inkscape:document-units="mm"
     inkscape:current-layer="layer1"
     inkscape:document-rotation="0"
     showgrid="false"
     inkscape:window-width="1448"
     inkscape:window-height="1013"
     inkscape:window-x="226"
     inkscape:window-y="0"
     inkscape:window-maximized="0" />
  <metadata
     id="metadata545">
    <rdf:RDF>
      <cc:Work
         rdf:about="">
        <dc:format>image/svg+xml</dc:format>
        <dc:type
           rdf:resource="http://purl.org/dc/dcmitype/StillImage" />
        <dc:title></dc:title>
      </cc:Work>
    </rdf:RDF>
  </metadata>
  <g
     inkscape:label="Layer 1"
     inkscape:groupmode="layer"
     id="layer1"
     transform="translate(-83.320105,-79.525866)">
    <g
       id="g161"
       transform="matrix(0.26458333,0,0,0.26458333,13.599069,79.516834)">
      <path
         fill="#999999"
         stroke="#999999"
         stroke-width="18.4083"
         stroke-linecap="round"
         stroke-linejoin="round"
         stroke-miterlimit="10"
         d="m 424.3,231.6 c 0,0 1.1,-9.9 -5.6,-35.4 C 412,170.7 424.1,117.9 445.1,74.5 466,31.1 427.8,21.9 427.8,21.9 368.7,3.2 372.4,164.3 372.4,164.3 c 0,0 -2.8,-3.2 -9.2,-29.8 -6.3,-26.6 -3.4,-77.8 -5.7,-94.8 -5.5,-40.1 -55.5,-36.9 -61,2.8 -3.1,22.9 8.8,104.6 23.9,132.8 20.6,38.5 -13.2,4.5 5.8,34.1 19,29.5 98.1,22.2 98.1,22.2 z"
         id="path4" />
      <path
         fill="#b3b3b3"
         stroke="#b3b3b3"
         stroke-width="18.4083"
         stroke-linecap="round"
         stroke-linejoin="round"
         stroke-miterlimit="10"
         d="M 433.8,205.8"
         id="path6" />
      <path
         fill="#b3b3b3"
         stroke="#b3b3b3"
         stroke-width="18.4083"
         stroke-linecap="round"
         stroke-linejoin="round"
         stroke-miterlimit="10"
         d="M 433.8,205.8"
         id="path8" />
      <path
         fill="#b3b3b3"
         stroke="#b3b3b3"
         stroke-width="18.4083"
         stroke-linecap="round"
         stroke-linejoin="round"
         stroke-miterlimit="10"
         d="m 439.4,202.6 c -31,4.4 -61,5.3 -56.6,-24.8 4.4,-30.1 68.1,-33.6 87.5,1.8 19.5,35.4 -34.5,68.1 -34.5,68.1 0,0 -0.9,17.7 -13.3,29.2 -12.4,11.5 -7.1,38.9 -7.1,38.9 l -83.1,11.5 c 0,0 8.8,-28.3 6.2,-35.4 -2.7,-7.1 -69.9,-52.2 -46.9,-82.2 23,-30.1 8.2,-30.5 40.1,-42.8"
         id="path10" />
      <path
         fill="#b3b3b3"
         stroke="#b3b3b3"
         stroke-width="18.4083"
         stroke-linecap="round"
         stroke-linejoin="round"
         stroke-miterlimit="10"
         d="m 293.2,160.3 c 0,0 14,-25.6 42.6,6.1 20.5,22.7 46,43.4 31.6,57.1 -14.4,13.7 -89.5,-27 -74.2,-63.2 z"
         id="path12" />
      <path
         fill="#b3b3b3"
         stroke="#b3b3b3"
         stroke-width="18.4083"
         stroke-linecap="round"
         stroke-linejoin="round"
         stroke-miterlimit="10"
         d="m 279.3,197.9 c 8.3,-11.5 21.1,-6.9 33.6,4.8 17.7,16.4 36.4,34.3 25,45.1 -11.4,10.8 -81.7,-17.9 -58.6,-49.9 z"
         id="path14" />
      <path
         fill="#b3b3b3"
         stroke="#b3b3b3"
         stroke-width="18.4083"
         stroke-linecap="round"
         stroke-linejoin="round"
         stroke-miterlimit="10"
         d="m 396.9,226.5 c 0,0 4.4,-18.6 22.1,-21.2"
         id="path16" />
      <path
         fill="#ffffff"
         stroke="#ffffff"
         stroke-width="18.4083"
         stroke-linecap="round"
         stroke-linejoin="round"
         stroke-miterlimit="10"
         d="m 422.1,229.7 c 0,0 1.1,-9.9 -5.6,-35.4 C 409.8,168.8 421.9,116 442.9,72.6 463.7,29.2 425.5,20 425.5,20 366.4,1.3 370,162.4 370,162.4 c 0,0 -2.8,-3.2 -9.2,-29.8 -6.3,-26.6 -3.4,-77.8 -5.7,-94.8 -5.5,-40.1 -55.5,-36.9 -61,2.8 -3.1,22.9 8.8,104.6 23.9,132.8 20.6,38.5 -13.2,4.5 5.8,34.1 19.1,29.5 98.3,22.2 98.3,22.2 z"
         id="path18" />
      <path
         fill="#ffffff"
         stroke="#ffffff"
         stroke-width="18.4083"
         stroke-linecap="round"
         stroke-linejoin="round"
         stroke-miterlimit="10"
         d="M 431.5,203.9"
         id="path20" />
      <path
         fill="#ffffff"
         stroke="#ffffff"
         stroke-width="18.4083"
         stroke-linecap="round"
         stroke-linejoin="round"
         stroke-miterlimit="10"
         d="M 431.5,203.9"
         id="path22" />
      <path
         fill="#ffffff"
         stroke="#ffffff"
         stroke-width="18.4083"
         stroke-linecap="round"
         stroke-linejoin="round"
         stroke-miterlimit="10"
         d="m 437.1,200.7 c -31,4.4 -61,5.3 -56.6,-24.8 4.4,-30.1 68.1,-33.6 87.5,1.8 19.5,35.4 -34.5,68.1 -34.5,68.1 0,0 -0.9,17.7 -13.3,29.2 -12.4,11.5 -7.1,38.9 -7.1,38.9 L 330,325.4 c 0,0 8.8,-28.3 6.2,-35.4 -2.7,-7.1 -69.9,-52.2 -46.9,-82.2 23,-30.1 8.2,-30.5 40.1,-42.8"
         id="path24" />
      <path
         fill="#ffffff"
         stroke="#ffffff"
         stroke-width="18.4083"
         stroke-linecap="round"
         stroke-linejoin="round"
         stroke-miterlimit="10"
         d="m 291,158.4 c 0,0 14,-25.6 42.6,6.1 20.5,22.7 46,43.4 31.6,57.1 -14.4,13.7 -89.5,-26.9 -74.2,-63.2 z"
         id="path26" />
      <path
         fill="#ffffff"
         stroke="#ffffff"
         stroke-width="18.4083"
         stroke-linecap="round"
         stroke-linejoin="round"
         stroke-miterlimit="10"
         d="m 277.1,196 c 8.3,-11.5 21.1,-6.9 33.6,4.8 17.7,16.4 36.4,34.3 25,45.1 C 324.3,256.8 254,228 277.1,196 Z"
         id="path28" />
      <path
         fill="#ffffff"
         stroke="#ffffff"
         stroke-width="18.4083"
         stroke-linecap="round"
         stroke-linejoin="round"
         stroke-miterlimit="10"
         d="m 394.7,224.6 c 0,0 4.4,-18.6 22.1,-21.2"
         id="path30" />
      <path
         fill="#fdd9bd"
         stroke="#4d4d4d"
         stroke-width="7.446"
         stroke-linecap="round"
         stroke-linejoin="round"
         stroke-miterlimit="10"
         d="m 422.1,229.7 c 0,0 1.1,-9.9 -5.6,-35.4 C 409.8,168.8 421.9,116 442.9,72.6 463.7,29.2 425.5,20 425.5,20 366.4,1.3 370,162.4 370,162.4 c 0,0 -2.8,-3.2 -9.2,-29.8 -6.3,-26.6 -3.4,-77.8 -5.7,-94.8 -5.5,-40.1 -55.5,-36.9 -61,2.8 -3.1,22.9 8.8,104.6 23.9,132.8 20.6,38.5 -13.2,4.5 5.8,34.1 19.1,29.5 98.3,22.2 98.3,22.2 z"
         id="path32" />
      <path
         fill="#fdd9bd"
         stroke="#4d4d4d"
         stroke-width="7.446"
         stroke-linecap="round"
         stroke-linejoin="round"
         stroke-miterlimit="10"
         d="M 431.5,203.9"
         id="path34" />
      <path
         fill="#fdd9bd"
         stroke="#4d4d4d"
         stroke-width="7.446"
         stroke-linecap="round"
         stroke-linejoin="round"
         stroke-miterlimit="10"
         d="M 431.5,203.9"
         id="path36" />
      <path
         fill="#fdd9bd"
         stroke="#4d4d4d"
         stroke-width="7.446"
         stroke-linecap="round"
         stroke-linejoin="round"
         stroke-miterlimit="10"
         d="m 437.1,200.7 c -31,4.4 -61,5.3 -56.6,-24.8 4.4,-30.1 68.1,-33.6 87.5,1.8 19.5,35.4 -34.5,68.1 -34.5,68.1 0,0 -0.9,17.7 -13.3,29.2 -12.4,11.5 -7.1,38.9 -7.1,38.9 L 330,325.4 c 0,0 8.8,-28.3 6.2,-35.4 -2.7,-7.1 -69.9,-52.2 -46.9,-82.2 23,-30.1 8.2,-30.5 40.1,-42.8"
         id="path38" />
      <path
         fill="#fdd9bd"
         stroke="#4d4d4d"
         stroke-width="7.446"
         stroke-linecap="round"
         stroke-linejoin="round"
         stroke-miterlimit="10"
         d="m 291,158.4 c 0,0 14,-25.6 42.6,6.1 20.5,22.7 46,43.4 31.6,57.1 -14.4,13.7 -89.5,-26.9 -74.2,-63.2 z"
         id="path40" />
      <path
         fill="#fdd9bd"
         stroke="#4d4d4d"
         stroke-width="7.446"
         stroke-linecap="round"
         stroke-linejoin="round"
         stroke-miterlimit="10"
         d="m 277.1,196 c 8.3,-11.5 21.1,-6.9 33.6,4.8 17.7,16.4 36.4,34.3 25,45.1 C 324.3,256.8 254,228 277.1,196 Z"
         id="path42" />
      <path
         fill="#fdd9bd"
         stroke="#4d4d4d"
         stroke-width="7.446"
         stroke-linecap="round"
         stroke-linejoin="round"
         stroke-miterlimit="10"
         d="m 394.7,224.6 c 0,0 4.4,-18.6 22.1,-21.2"
         id="path44" />
    </g>
  </g>
</svg>
